<svg xmlns="http://www.w3.org/2000/svg" width="573" height="89.552" viewBox="0 0 573 89.552">
  <g id="Group_639" data-name="Group 639" transform="translate(-199.5 10)">
    <g id="Group_638" data-name="Group 638" transform="translate(199.5 -10)">
      <g id="Group_634" data-name="Group 634" transform="translate(254.635 64.949)">
        <path id="Path_1363" data-name="Path 1363" d="M1874.1,1927.83a7.609,7.609,0,0,1-3.062-.541,4.476,4.476,0,0,1-1.869-1.417,3.3,3.3,0,0,1-.679-1.841.4.4,0,0,1,.117-.3.406.406,0,0,1,.3-.119h1.752a.574.574,0,0,1,.384.109,1.122,1.122,0,0,1,.227.265,1.972,1.972,0,0,0,.452.738,2.5,2.5,0,0,0,.916.6,3.931,3.931,0,0,0,1.468.235,3.807,3.807,0,0,0,2.116-.472,1.473,1.473,0,0,0,.7-1.28,1.188,1.188,0,0,0-.374-.915,3.514,3.514,0,0,0-1.152-.631,20.813,20.813,0,0,0-2.057-.6,11.479,11.479,0,0,1-2.472-.855,3.741,3.741,0,0,1-1.5-1.271,3.492,3.492,0,0,1-.5-1.949,3.451,3.451,0,0,1,.62-2.027,4.157,4.157,0,0,1,1.772-1.4,6.726,6.726,0,0,1,2.746-.511,6.887,6.887,0,0,1,2.264.343,5.03,5.03,0,0,1,1.635.906,4.317,4.317,0,0,1,.993,1.2,2.84,2.84,0,0,1,.365,1.25.436.436,0,0,1-.108.286.376.376,0,0,1-.306.128h-1.83a.692.692,0,0,1-.315-.079.569.569,0,0,1-.256-.3,1.636,1.636,0,0,0-.768-1.043,2.958,2.958,0,0,0-1.674-.434,3.273,3.273,0,0,0-1.712.394,1.464,1.464,0,0,0-.325,2.137,2.65,2.65,0,0,0,1.044.639,18.989,18.989,0,0,0,1.9.591,13.682,13.682,0,0,1,2.736.866,3.573,3.573,0,0,1,1.555,1.25,3.453,3.453,0,0,1,.492,1.92,3.538,3.538,0,0,1-.7,2.214,4.429,4.429,0,0,1-1.958,1.409A8.039,8.039,0,0,1,1874.1,1927.83Z" transform="translate(-1868.487 -1913.655)" fill="#599410"/>
        <path id="Path_1364" data-name="Path 1364" d="M1885.182,1927.6a.471.471,0,0,1-.473-.472v-4.449l-4.646-8.23a.728.728,0,0,1-.038-.1.332.332,0,0,1-.021-.118.4.4,0,0,1,.119-.3.376.376,0,0,1,.275-.118h1.752a.6.6,0,0,1,.384.118.685.685,0,0,1,.208.257l3.347,5.728,3.326-5.728a.918.918,0,0,1,.227-.257.6.6,0,0,1,.384-.118h1.733a.4.4,0,0,1,.413.413.649.649,0,0,1-.01.118.178.178,0,0,1-.049.1l-4.646,8.23v4.449a.453.453,0,0,1-.137.333.481.481,0,0,1-.355.138Z" transform="translate(-1866.184 -1913.622)" fill="#599410"/>
        <path id="Path_1365" data-name="Path 1365" d="M1893.913,1927.6a.471.471,0,0,1-.471-.472v-12.817a.48.48,0,0,1,.138-.355.459.459,0,0,1,.333-.137h1.517a.55.55,0,0,1,.4.127,1.672,1.672,0,0,1,.168.187l5.67,8.82v-8.642a.5.5,0,0,1,.127-.355.454.454,0,0,1,.346-.137h1.654a.471.471,0,0,1,.492.492v12.8a.476.476,0,0,1-.138.353.456.456,0,0,1-.335.138h-1.536a.492.492,0,0,1-.394-.138,1.264,1.264,0,0,0-.177-.177l-5.65-8.622v8.466a.454.454,0,0,1-.138.333.477.477,0,0,1-.355.138Z" transform="translate(-1863.496 -1913.622)" fill="#599410"/>
        <path id="Path_1366" data-name="Path 1366" d="M1907.153,1927.6a.455.455,0,0,1-.335-.138.448.448,0,0,1-.137-.333v-12.817a.48.48,0,0,1,.137-.355.464.464,0,0,1,.335-.137h8.663a.471.471,0,0,1,.492.492v1.3a.46.46,0,0,1-.138.335.477.477,0,0,1-.354.137h-6.478v3.485h6.044a.5.5,0,0,1,.354.128.445.445,0,0,1,.138.344v1.22a.447.447,0,0,1-.138.345.5.5,0,0,1-.354.127h-6.044v3.6h6.635a.471.471,0,0,1,.492.493v1.3a.452.452,0,0,1-.137.333.479.479,0,0,1-.355.138Z" transform="translate(-1860.848 -1913.622)" fill="#599410"/>
        <path id="Path_1367" data-name="Path 1367" d="M1919,1927.6a.453.453,0,0,1-.335-.138.447.447,0,0,1-.137-.333v-12.817a.48.48,0,0,1,.137-.355.461.461,0,0,1,.335-.137h5.1a5.865,5.865,0,0,1,3.761,1.1,3.87,3.87,0,0,1,1.377,3.21,3.944,3.944,0,0,1-.717,2.422,4.052,4.052,0,0,1-1.92,1.4l2.874,5.021a.482.482,0,0,1,.059.216.38.38,0,0,1-.127.294.4.4,0,0,1-.286.119h-1.792a.7.7,0,0,1-.512-.177,1.671,1.671,0,0,1-.276-.355L1924,1922.4h-2.736v4.726a.469.469,0,0,1-.128.333.446.446,0,0,1-.344.138Zm2.264-7.422h2.776a2.582,2.582,0,0,0,1.792-.541,1.968,1.968,0,0,0,.59-1.526,2.045,2.045,0,0,0-.581-1.544,2.508,2.508,0,0,0-1.8-.562h-2.776Z" transform="translate(-1858.479 -1913.622)" fill="#599410"/>
        <path id="Path_1368" data-name="Path 1368" d="M1936.608,1927.83a6.875,6.875,0,0,1-3.08-.629,4.608,4.608,0,0,1-1.969-1.823,5.956,5.956,0,0,1-.758-2.844c-.013-.565-.019-1.171-.019-1.822s.006-1.264.019-1.84a5.75,5.75,0,0,1,.758-2.8,4.637,4.637,0,0,1,1.989-1.79,6.9,6.9,0,0,1,3.061-.63,7.508,7.508,0,0,1,2.52.384,5.8,5.8,0,0,1,1.8.984,4.361,4.361,0,0,1,1.082,1.289,3,3,0,0,1,.384,1.28.345.345,0,0,1-.1.3.428.428,0,0,1-.316.116h-2.027a.467.467,0,0,1-.3-.078.676.676,0,0,1-.178-.236,2.952,2.952,0,0,0-.492-.817,2.682,2.682,0,0,0-.906-.679,3.416,3.416,0,0,0-1.477-.276,3.106,3.106,0,0,0-2.136.709,3.167,3.167,0,0,0-.856,2.343q-.06,1.714,0,3.466a3.243,3.243,0,0,0,.876,2.4,3.118,3.118,0,0,0,2.155.727,3.817,3.817,0,0,0,1.585-.314,2.439,2.439,0,0,0,1.1-.984,3.28,3.28,0,0,0,.4-1.712v-.611h-2.4a.457.457,0,0,1-.336-.138.481.481,0,0,1-.137-.354v-1.044a.482.482,0,0,1,.137-.354.457.457,0,0,1,.336-.138h4.7a.446.446,0,0,1,.345.138.5.5,0,0,1,.127.354v2.066a5.461,5.461,0,0,1-.718,2.856,4.754,4.754,0,0,1-2.048,1.85A7.076,7.076,0,0,1,1936.608,1927.83Z" transform="translate(-1856.028 -1913.655)" fill="#599410"/>
        <path id="Path_1369" data-name="Path 1369" d="M1948.165,1927.6a.469.469,0,0,1-.471-.472v-4.449l-4.646-8.23a.59.59,0,0,1-.04-.1.362.362,0,0,1-.021-.118.4.4,0,0,1,.119-.3.378.378,0,0,1,.275-.118h1.752a.6.6,0,0,1,.384.118.68.68,0,0,1,.208.257l3.347,5.728,3.328-5.728a.9.9,0,0,1,.226-.257.6.6,0,0,1,.384-.118h1.733a.4.4,0,0,1,.3.118.4.4,0,0,1,.118.3.628.628,0,0,1-.01.118.175.175,0,0,1-.048.1l-4.646,8.23v4.449a.453.453,0,0,1-.138.333.48.48,0,0,1-.355.138Z" transform="translate(-1853.587 -1913.622)" fill="#599410"/>
      </g>
      <g id="Group_635" data-name="Group 635" transform="translate(10.228 10.623)">
        <rect id="Rectangle_589" data-name="Rectangle 589" width="55.228" height="8.769" transform="translate(239.492 29.228)" fill="#003b75"/>
        <path id="Path_1370" data-name="Path 1370" d="M1787.7,1868.384v38H1769.3v-10.332H1743.1l16.553-8.839h9.655v-8.5l-51.727,27.668h-31.035c-12.068,0-21.727-8.5-21.727-19.057,0-9.833,8.466-17.876,19.282-18.939h75.416l-18.011,9.638h-51.282c-5.63.114-10.23,4.249-10.23,9.3,0,5.166,4.714,9.3,10.458,9.3h22.53l52.764-28.24Z" transform="translate(-1664.814 -1868.384)" fill="#003b75" fill-rule="evenodd"/>
        <path id="Path_1371" data-name="Path 1371" d="M1972.428,1891.233c6.894-1.036,12.065-5.741,12.065-11.254,0-6.312-6.666-11.482-14.935-11.6H1770.566v38h18.38v-14.229h27.8l16.652,14.229h18.384l-17.573-15.261a16.782,16.782,0,0,0,8.4-4.02,9.743,9.743,0,0,0,3.319-7.12,6.746,6.746,0,0,0-.461-2.638h15.282v29.039h18.38v-29.039h84.558a3.971,3.971,0,0,1,2.458.8,2.386,2.386,0,0,1,.991,1.835c0,1.493-1.61,2.642-3.449,2.642h-80.538v9.643h71.58l16.514,14.115h18.387Zm-147.059-8.611h-36.19v-5.4h36.076a4.717,4.717,0,0,1,2.527.808,2.556,2.556,0,0,1,1.032,1.949C1828.814,1881.473,1827.207,1882.622,1825.369,1882.622Z" transform="translate(-1643.664 -1868.384)" fill="#003b75" fill-rule="evenodd"/>
      </g>
      <rect id="Rectangle_590" data-name="Rectangle 590" width="1.806" height="89.552" transform="translate(378.914)" fill="#8c8b8b"/>
      <g id="Group_636" data-name="Group 636" transform="translate(399.101 64.949)">
        <path id="Path_1372" data-name="Path 1372" d="M1989.347,1927.6a.471.471,0,0,1-.471-.472v-12.817a.48.48,0,0,1,.138-.355.459.459,0,0,1,.333-.137h5.1a5.863,5.863,0,0,1,3.76,1.1,3.869,3.869,0,0,1,1.378,3.21,3.943,3.943,0,0,1-.718,2.422,4.05,4.05,0,0,1-1.92,1.4l2.875,5.021a.5.5,0,0,1,.059.216.381.381,0,0,1-.128.294.4.4,0,0,1-.285.119h-1.792a.692.692,0,0,1-.511-.177,1.6,1.6,0,0,1-.277-.355l-2.539-4.666h-2.736v4.726a.464.464,0,0,1-.129.333.442.442,0,0,1-.343.138Zm2.265-7.422h2.775a2.581,2.581,0,0,0,1.792-.541,1.964,1.964,0,0,0,.592-1.526,2.048,2.048,0,0,0-.581-1.544,2.515,2.515,0,0,0-1.8-.562h-2.775Z" transform="translate(-1988.875 -1913.622)" fill="#599410"/>
        <path id="Path_1373" data-name="Path 1373" d="M2002.029,1927.6a.455.455,0,0,1-.335-.138.447.447,0,0,1-.137-.333v-12.817a.48.48,0,0,1,.137-.355.463.463,0,0,1,.335-.137h8.663a.469.469,0,0,1,.492.492v1.3a.463.463,0,0,1-.137.335.48.48,0,0,1-.355.137h-6.478v3.485h6.045a.5.5,0,0,1,.353.128.445.445,0,0,1,.138.344v1.22a.447.447,0,0,1-.138.345.5.5,0,0,1-.353.127h-6.045v3.6h6.636a.472.472,0,0,1,.491.493v1.3a.449.449,0,0,1-.138.333.473.473,0,0,1-.353.138Z" transform="translate(-1986.339 -1913.622)" fill="#599410"/>
        <path id="Path_1374" data-name="Path 1374" d="M2013.875,1927.6a.471.471,0,0,1-.473-.472v-12.817a.48.48,0,0,1,.138-.355.458.458,0,0,1,.335-.137h8.544a.473.473,0,0,1,.492.492v1.377a.445.445,0,0,1-.139.344.5.5,0,0,1-.353.128h-6.32v3.74h5.927a.475.475,0,0,1,.492.493v1.378a.453.453,0,0,1-.139.335.476.476,0,0,1-.353.137H2016.1v4.884a.449.449,0,0,1-.138.333.477.477,0,0,1-.353.138Z" transform="translate(-1983.97 -1913.622)" fill="#599410"/>
        <path id="Path_1375" data-name="Path 1375" d="M2025.375,1927.6a.455.455,0,0,1-.335-.138.448.448,0,0,1-.138-.333v-12.817a.48.48,0,0,1,.138-.355.464.464,0,0,1,.335-.137h5.1a5.86,5.86,0,0,1,3.761,1.1,3.867,3.867,0,0,1,1.379,3.21,3.943,3.943,0,0,1-.719,2.422,4.051,4.051,0,0,1-1.92,1.4l2.874,5.021a.482.482,0,0,1,.059.216.38.38,0,0,1-.127.294.406.406,0,0,1-.286.119H2033.7a.7.7,0,0,1-.512-.177,1.632,1.632,0,0,1-.275-.355l-2.539-4.666h-2.737v4.726a.47.47,0,0,1-.128.333.444.444,0,0,1-.345.138Zm2.264-7.422h2.776a2.582,2.582,0,0,0,1.792-.541,1.967,1.967,0,0,0,.59-1.526,2.045,2.045,0,0,0-.581-1.544,2.508,2.508,0,0,0-1.8-.562h-2.776Z" transform="translate(-1981.67 -1913.622)" fill="#599410"/>
        <path id="Path_1376" data-name="Path 1376" d="M2038.057,1927.6a.456.456,0,0,1-.335-.138.449.449,0,0,1-.138-.333v-12.838a.456.456,0,0,1,.138-.335.464.464,0,0,1,.335-.137h1.85a.452.452,0,0,1,.344.137.477.477,0,0,1,.128.335v12.838a.469.469,0,0,1-.128.333.444.444,0,0,1-.344.138Z" transform="translate(-1979.133 -1913.622)" fill="#599410"/>
        <path id="Path_1377" data-name="Path 1377" d="M2049.563,1927.83a6.874,6.874,0,0,1-3.079-.629,4.609,4.609,0,0,1-1.97-1.823,5.981,5.981,0,0,1-.759-2.844c-.012-.565-.019-1.171-.019-1.822s.007-1.264.019-1.84a5.774,5.774,0,0,1,.759-2.8,4.64,4.64,0,0,1,1.99-1.79,6.894,6.894,0,0,1,3.06-.63,7.5,7.5,0,0,1,2.52.384,5.776,5.776,0,0,1,1.8.984,4.362,4.362,0,0,1,1.083,1.289,3,3,0,0,1,.384,1.28.344.344,0,0,1-.1.3.429.429,0,0,1-.316.116h-2.026a.469.469,0,0,1-.3-.078.691.691,0,0,1-.178-.236,2.918,2.918,0,0,0-.492-.817,2.65,2.65,0,0,0-.906-.679,3.413,3.413,0,0,0-1.477-.276,3.106,3.106,0,0,0-2.136.709,3.167,3.167,0,0,0-.856,2.343q-.059,1.714,0,3.466a3.238,3.238,0,0,0,.877,2.4,3.116,3.116,0,0,0,2.155.727,3.813,3.813,0,0,0,1.584-.314,2.434,2.434,0,0,0,1.1-.984,3.287,3.287,0,0,0,.4-1.712v-.611h-2.4a.457.457,0,0,1-.336-.138.485.485,0,0,1-.137-.354v-1.044a.485.485,0,0,1,.137-.354.456.456,0,0,1,.336-.138h4.7a.445.445,0,0,1,.345.138.5.5,0,0,1,.128.354v2.066a5.459,5.459,0,0,1-.719,2.856,4.756,4.756,0,0,1-2.047,1.85A7.085,7.085,0,0,1,2049.563,1927.83Z" transform="translate(-1977.903 -1913.655)" fill="#599410"/>
        <path id="Path_1378" data-name="Path 1378" d="M2057.729,1927.6a.471.471,0,0,1-.472-.472v-12.817a.48.48,0,0,1,.138-.355.459.459,0,0,1,.334-.137h8.663a.471.471,0,0,1,.492.492v1.3a.46.46,0,0,1-.138.335.476.476,0,0,1-.354.137h-6.478v3.485h6.043a.5.5,0,0,1,.355.128.449.449,0,0,1,.138.344v1.22a.451.451,0,0,1-.138.345.5.5,0,0,1-.355.127h-6.043v3.6h6.634a.473.473,0,0,1,.493.493v1.3a.448.448,0,0,1-.138.333.478.478,0,0,1-.355.138Z" transform="translate(-1975.199 -1913.622)" fill="#599410"/>
        <path id="Path_1379" data-name="Path 1379" d="M2069.574,1927.6a.471.471,0,0,1-.472-.472v-12.817a.48.48,0,0,1,.138-.355.457.457,0,0,1,.334-.137h5.1a5.861,5.861,0,0,1,3.76,1.1,3.866,3.866,0,0,1,1.377,3.21,3.937,3.937,0,0,1-.719,2.422,4.043,4.043,0,0,1-1.917,1.4l2.873,5.021a.467.467,0,0,1,.06.216.381.381,0,0,1-.128.294.4.4,0,0,1-.284.119H2077.9a.693.693,0,0,1-.511-.177,1.552,1.552,0,0,1-.276-.355l-2.541-4.666h-2.736v4.726a.469.469,0,0,1-.129.333.442.442,0,0,1-.343.138Zm2.264-7.422h2.775a2.582,2.582,0,0,0,1.793-.541,1.967,1.967,0,0,0,.59-1.526,2.048,2.048,0,0,0-.581-1.544,2.515,2.515,0,0,0-1.8-.562h-2.775Z" transform="translate(-1972.83 -1913.622)" fill="#599410"/>
        <path id="Path_1380" data-name="Path 1380" d="M2081.147,1927.6a.4.4,0,0,1-.285-.119.377.377,0,0,1-.129-.294.479.479,0,0,1,.04-.177l4.745-12.7a.745.745,0,0,1,.227-.346.679.679,0,0,1,.462-.146h2.146a.645.645,0,0,1,.454.146.969.969,0,0,1,.236.346l4.744,12.7a.829.829,0,0,1,.02.177.4.4,0,0,1-.117.294.374.374,0,0,1-.277.119H2091.7a.55.55,0,0,1-.4-.128.65.65,0,0,1-.168-.246l-.925-2.4h-5.848l-.925,2.4a.648.648,0,0,1-.168.246.55.55,0,0,1-.4.128Zm3.9-5.04h4.469l-2.244-6.084Z" transform="translate(-1970.504 -1913.622)" fill="#599410"/>
        <path id="Path_1381" data-name="Path 1381" d="M2097.281,1927.6a.453.453,0,0,1-.335-.138.448.448,0,0,1-.138-.333v-10.887h-3.642a.459.459,0,0,1-.334-.138.451.451,0,0,1-.138-.335v-1.457a.48.48,0,0,1,.138-.355.463.463,0,0,1,.334-.137h10.042a.471.471,0,0,1,.491.492v1.457a.452.452,0,0,1-.138.335.48.48,0,0,1-.353.138h-3.623v10.887a.45.45,0,0,1-.139.333.475.475,0,0,1-.354.138Z" transform="translate(-1968.112 -1913.622)" fill="#599410"/>
        <path id="Path_1382" data-name="Path 1382" d="M2105.635,1927.6a.454.454,0,0,1-.335-.138.447.447,0,0,1-.137-.333v-12.838a.454.454,0,0,1,.137-.335.462.462,0,0,1,.335-.137h1.852a.451.451,0,0,1,.343.137.477.477,0,0,1,.128.335v12.838a.469.469,0,0,1-.128.333.443.443,0,0,1-.343.138Z" transform="translate(-1965.617 -1913.622)" fill="#599410"/>
        <path id="Path_1383" data-name="Path 1383" d="M2117.084,1927.83a7.162,7.162,0,0,1-3.013-.581,4.329,4.329,0,0,1-1.968-1.791,6.3,6.3,0,0,1-.768-3.023c-.014-.564-.021-1.123-.021-1.673s.006-1.116.021-1.693a6.069,6.069,0,0,1,.787-2.994,4.653,4.653,0,0,1,2-1.811,7.534,7.534,0,0,1,5.937,0,4.643,4.643,0,0,1,2.007,1.811,6.1,6.1,0,0,1,.787,2.994q.04.866.041,1.693c0,.55-.014,1.109-.041,1.673a6.326,6.326,0,0,1-.768,3.023,4.313,4.313,0,0,1-1.979,1.791A7.222,7.222,0,0,1,2117.084,1927.83Zm0-2.264a2.923,2.923,0,0,0,2.085-.757,3.423,3.423,0,0,0,.866-2.471q.04-.866.04-1.6t-.04-1.585a4.268,4.268,0,0,0-.423-1.861,2.365,2.365,0,0,0-1.034-1.043,3.3,3.3,0,0,0-1.495-.325,3.265,3.265,0,0,0-1.477.325,2.362,2.362,0,0,0-1.033,1.043,4.249,4.249,0,0,0-.425,1.861c-.012.564-.019,1.093-.019,1.585s.007,1.027.019,1.6a3.433,3.433,0,0,0,.867,2.471A2.9,2.9,0,0,0,2117.084,1925.565Z" transform="translate(-1964.387 -1913.655)" fill="#599410"/>
        <path id="Path_1384" data-name="Path 1384" d="M2125.224,1927.6a.472.472,0,0,1-.473-.472v-12.817a.481.481,0,0,1,.138-.355.461.461,0,0,1,.335-.137h1.516a.55.55,0,0,1,.4.127,1.432,1.432,0,0,1,.167.187l5.671,8.82v-8.642a.5.5,0,0,1,.127-.355.453.453,0,0,1,.344-.137h1.655a.473.473,0,0,1,.492.492v12.8a.473.473,0,0,1-.139.353.448.448,0,0,1-.334.138h-1.536a.492.492,0,0,1-.394-.138,1.348,1.348,0,0,0-.176-.177l-5.651-8.622v8.466a.449.449,0,0,1-.138.333.48.48,0,0,1-.354.138Z" transform="translate(-1961.7 -1913.622)" fill="#599410"/>
      </g>
      <g id="Group_637" data-name="Group 637" transform="translate(423.696 10.623)">
        <path id="Path_1385" data-name="Path 1385" d="M2122.257,1887.44a10.271,10.271,0,0,0,3.562-7.462c0-6.314-6.664-11.48-14.937-11.594H2060.9l-10.225,8.839h12.753v29.157h47.452c8.273,0,14.937-5.166,14.937-11.594a9.634,9.634,0,0,0-3.562-7.346Zm-17.119,10.1h-23.209v-5.4h23.209c1.952,0,3.446,1.262,3.446,2.64.115,1.607-1.494,2.755-3.446,2.755Zm0-14.923h-23.209v-5.4h23.209c1.952,0,3.446,1.262,3.446,2.64s-1.494,2.755-3.446,2.755Z" transform="translate(-2001.11 -1868.384)" fill="#003b75" fill-rule="evenodd"/>
        <path id="Path_1386" data-name="Path 1386" d="M2052.624,1877.223l10.211-8.839h-18.357l-16.636,14.464v-14.464h-18.471v38h18.471v-14.464l16.636,14.464h18.357l-21.913-18.941,11.7-10.217Z" transform="translate(-2009.371 -1868.384)" fill="#003b75" fill-rule="evenodd"/>
      </g>
      <path id="Path_1387" data-name="Path 1387" d="M2016.452,1905.367H1666.519l-10.228,5.968,360.161-5.222a.373.373,0,1,0,0-.745Z" transform="translate(-1656.291 -1850.364)" fill="#599410" fill-rule="evenodd"/>
      <path id="Path_1388" data-name="Path 1388" d="M2162.4,1905.367H1999.1l-10.226,5.968,173.527-5.222a.373.373,0,0,0,0-.745Z" transform="translate(-1589.774 -1850.364)" fill="#599410" fill-rule="evenodd"/>
    </g>
  </g>
</svg>
